<?xml version="1.0" encoding="utf-8"?>
<!-- Generator: Adobe Illustrator 22.1.0, SVG Export Plug-In . SVG Version: 6.00 Build 0)  -->
<svg version="1.1" id="Lag_1" xmlns="http://www.w3.org/2000/svg" xmlns:xlink="http://www.w3.org/1999/xlink" x="0px" y="0px"
	 viewBox="0 0 220 77" style="enable-background:new 0 0 220 77;" xml:space="preserve">
<style type="text/css">
	.st0{fill:#B4E1F9;}
	.st1{fill:#83B8E5;}
	.st2{fill:#003E78;}
	.st3{fill:#4F463D;}
</style>
<g>
	<path class="st0" d="M13.3,64.6C12,64,12,63.1,13.2,62.4l11-5.5c1.2-0.6,3.3-0.6,4.5,0l10.6,5.5c1.2,0.6,1.2,1.6-0.1,2.2l-10.7,4.6
		c-1.3,0.6-3.4,0.6-4.7,0L13.3,64.6z"/>
	<path class="st0" d="M49.9,62.5c-1.2,0.6-1.2,1.6,0.1,2.1l11.3,4.7c1.3,0.5,3.4,0.5,4.7-0.1l10.1-4.5c1.3-0.6,1.3-1.6,0.1-2.2
		l-10.7-5.6c-1.2-0.6-3.3-0.7-4.5,0L49.9,62.5z"/>
	<path class="st0" d="M32.5,34.4c-1.2,0.6-1.2,1.7,0,2.3l10.1,5.1c1.2,0.6,3.3,0.6,4.5,0l10.1-5.1c1.2-0.6,1.2-1.7,0-2.3L47,29.3
		c-1.2-0.6-3.3-0.6-4.5,0L32.5,34.4z"/>
	<path class="st1" d="M64.1,39c0-1.4,1-2,2.2-1.3L77,43.4c1.2,0.7,2.3,2.3,2.4,3.7l0.5,12.6c0.1,1.4-0.9,2-2.2,1.4l-11.5-5.8
		c-1.2-0.6-2.3-2.3-2.3-3.7V39H64.1z"/>
	<path class="st1" d="M27.7,39c0-1.4,1-2,2.3-1.4l11.5,5.8c1.2,0.6,2.3,2.3,2.3,3.7v12.6c0,1.4-1,2-2.3,1.4L30,55.3
		c-1.2-0.6-2.3-2.3-2.3-3.7V39z"/>
	<path class="st2" d="M25.7,39c0-1.4-1-2-2.2-1.3l-10.3,5.7c-1.2,0.7-2.3,2.4-2.4,3.8L9.9,59.7c-0.1,1.4,0.8,2,2.1,1.4l11.5-5.8
		c1.2-0.6,2.3-2.3,2.3-3.7L25.7,39L25.7,39z"/>
	<path class="st2" d="M61.9,39c0-1.4-1-2-2.3-1.4l-11.5,5.8C47,44.1,46,45.7,46,47.1v12.4c0,1.4,1,2,2.3,1.4l11.4-5.7
		c1.3-0.6,2.3-2.3,2.3-3.7L61.9,39L61.9,39z"/>
	<path class="st2" d="M27.8,32.2c-0.1,1.4,0.9,2,2.2,1.4l11.5-5.8c1.2-0.6,2.3-2.3,2.3-3.7V11.4c0-1.4-1-2-2.2-1.3l-10.7,5.7
		c-1.2,0.7-2.3,2.3-2.4,3.7L27.8,32.2z"/>
	<path class="st1" d="M61.5,32.2c0.1,1.4-0.9,2-2.2,1.4l-11.5-5.8c-1.2-0.6-2.3-2.3-2.3-3.7V11.4c0-1.4,1-2,2.2-1.3l10.7,5.7
		c1.2,0.7,2.3,2.3,2.4,3.7L61.5,32.2z"/>
	<g>
		<path class="st3" d="M133.4,53.8h1l0.8,3c0,0.1,0.1,0.3,0.1,0.6c0,0.1,0,0.1,0,0.2c0-0.2,0-0.3,0.1-0.4c0-0.2,0-0.3,0.1-0.4l0.8-3
			h1l0.5,4.8h-0.9l-0.3-3.2c0,0,0-0.1,0-0.4v-0.2v-0.2v0.1v0.2l-0.1,0.3l0,0l-0.8,3.2H135l-0.8-3.2l0,0l-0.1-0.3v-0.2v-0.1v0.1v0.2
			c0,0.2,0,0.3,0,0.4l-0.3,3.2h-0.9L133.4,53.8z"/>
		<path class="st3" d="M138.5,53.8h2.6v0.6l-1.8,0.1v1.3h1.5v0.6h-1.5v1.5l1.8,0.1v0.6h-2.7L138.5,53.8L138.5,53.8z"/>
		<path class="st3" d="M141.8,53.8h1.5c0.1,0,0.2,0,0.3,0c0.9,0.1,1.4,0.7,1.2,1.5c-0.1,0.5-0.5,0.8-1.1,0.9c-0.1,0-0.1,0-0.2,0
			l1.7,2.4h-1l-1.5-2.2v2.2h-0.9V53.8z M143,55.9c0.6,0,0.9-0.2,0.9-0.7s-0.2-0.7-0.7-0.7h-0.4v1.4H143z"/>
		<path class="st3" d="M145.5,53.8h2.6v0.6l-1.8,0.1v1.3h1.5v0.6h-1.5v1.5l1.8,0.1v0.6h-2.7L145.5,53.8L145.5,53.8z"/>
		<path class="st3" d="M151,53.8h2.6v0.6l-1.8,0.1v1.3h1.5v0.6h-1.5v1.5l1.8,0.1v0.6H151V53.8z"/>
		<path class="st3" d="M154.4,53.8h1l1.5,3.2c0,0,0,0.1,0.1,0.3c0,0.1,0.1,0.2,0.1,0.4v-0.2v-0.2V57l0,0v-3.2h0.8v4.8h-1l-1.5-3.2
			l0,0l-0.1-0.3l-0.1-0.2v-0.1c0,0.1,0,0.1,0,0.2c0,0.3,0,0.5,0,0.6v3.1h-0.7v-4.9H154.4z"/>
		<path class="st3" d="M158.5,53.8h1.3c1.2,0,1.8,0.5,1.9,1.9c0,0.2,0,0.3,0,0.5c0,1.7-0.7,2.4-2,2.4h-1.3v-4.8H158.5z M159.8,58
			c0.7,0,0.9-0.3,1-1.5c0-0.2,0-0.4,0-0.6c-0.1-1.1-0.4-1.4-1-1.4h-0.4V58H159.8z"/>
		<path class="st3" d="M164.6,53.8h1.6c0.9,0,1.2,0.3,1.3,0.9c0.1,0.8-0.2,1.2-0.9,1.4h-0.1h0.1c0.9,0.1,1.3,0.5,1.1,1.5
			c-0.1,0.7-0.5,1-1.3,1h-1.8L164.6,53.8L164.6,53.8z M166.1,58c0.5,0,0.7-0.2,0.7-0.8s-0.2-0.8-0.8-0.8h-0.5V58H166.1z M166,55.9
			c0.5,0,0.7-0.2,0.7-0.6c0-0.6-0.1-0.8-0.5-0.9h-0.1h-0.6v1.5H166z"/>
		<path class="st3" d="M169.4,53.8h1.1l1.3,4.8h-0.9l-0.4-1.5h-1.1l-0.4,1.5h-0.9L169.4,53.8z M170.4,56.5L170,55c0,0,0-0.1,0-0.2
			c0-0.1,0-0.3,0-0.4c0,0.1,0,0.1,0,0.2c0,0.2,0,0.3-0.1,0.4l-0.4,1.5H170.4z"/>
		<path class="st3" d="M172.2,53.8h1.5c0.1,0,0.2,0,0.3,0c0.9,0.1,1.4,0.7,1.2,1.5c-0.1,0.5-0.5,0.8-1.1,0.9c-0.1,0-0.1,0-0.2,0
			l1.7,2.4h-1l-1.5-2.2v2.2h-0.9V53.8z M173.3,55.9c0.6,0,0.9-0.2,0.9-0.7s-0.2-0.7-0.7-0.7h-0.4v1.4H173.3z"/>
		<path class="st3" d="M175.9,53.8h2.6v0.6l-1.8,0.1v1.3h1.5v0.6h-1.5v1.5l1.8,0.1v0.6h-2.7L175.9,53.8L175.9,53.8z"/>
		<path class="st3" d="M183.7,54.6h-0.1c-0.8-0.3-1.4-0.1-1.5,0.3c-0.1,0.4,0.1,0.6,0.8,0.9c0,0,0.1,0.1,0.2,0.1
			c1,0.5,1.3,1,1.1,1.7c-0.2,0.9-1.3,1.4-2.8,0.9h-0.1l0.2-0.7c0,0,0.1,0,0.1,0.1c0.9,0.4,1.6,0.2,1.7-0.3c0.1-0.4,0-0.6-0.7-0.9
			c-0.1,0-0.1-0.1-0.2-0.1c-1-0.5-1.3-1-1.1-1.8s1.1-1.3,2.4-0.9h0.1h0.1L183.7,54.6z"/>
		<path class="st3" d="M186.5,53.8c1,0,1.6,0.7,1.8,2c0.2,2-0.6,2.9-1.8,2.9c-1,0-1.8-0.8-1.8-2.5C184.7,54.6,185.4,53.8,186.5,53.8
			z M185.7,56.6c0,0.7,0.1,1,0.3,1.2c0.3,0.4,0.8,0.4,1,0c0.2-0.2,0.3-0.6,0.3-1.2c0-0.2,0-0.4,0-0.6c0-0.7-0.2-1-0.3-1.2
			c-0.3-0.4-0.8-0.4-1,0c-0.2,0.2-0.3,0.6-0.3,1.2c0,0.1,0,0.2,0,0.3C185.6,56.3,185.7,56.4,185.7,56.6z"/>
		<path class="st3" d="M189,53.8h2.7v0.6l-1.8,0.1v1.3h1.5v0.6h-1.5v2.2H189V53.8z"/>
		<path class="st3" d="M191.8,53.8h3.1v0.6l-1.1,0.1v4.1h-0.9v-4.1l-1.1-0.1V53.8z"/>
		<path class="st3" d="M195.9,53.8l0.5,3.2c0,0.1,0,0.2,0,0.4v0.2v0.1v-0.2v-0.2c0-0.3,0.1-0.4,0.1-0.4l0.6-3.2h0.8l0.6,3.2
			c0,0,0,0.1,0.1,0.4v0.2v0.2v-0.2v-0.2c0-0.3,0-0.4,0-0.4l0.5-3.2h0.9l-0.9,4.8h-1l-0.7-3.2c0-0.1,0-0.1,0-0.3v-0.2v-0.2v0.2V55
			c0,0.2,0,0.3,0,0.3l-0.7,3.2h-1l-0.9-4.8h1.1V53.8z"/>
		<path class="st3" d="M201.4,53.8h1.1l1.3,4.8h-0.9l-0.4-1.5h-1.1l-0.4,1.5h-1L201.4,53.8z M202.4,56.5L202,55c0,0,0-0.1,0-0.2
			c0-0.1,0-0.3,0-0.4c0,0.1,0,0.1,0,0.2c0,0.2,0,0.3-0.1,0.4l-0.4,1.5H202.4z"/>
		<path class="st3" d="M204.1,53.8h1.5c0.1,0,0.2,0,0.3,0c0.9,0.1,1.4,0.7,1.2,1.5c-0.1,0.5-0.5,0.8-1.1,0.9c-0.1,0-0.1,0-0.2,0
			l1.7,2.4h-1l-1.5-2.2v2.2h-0.9V53.8z M205.3,55.9c0.6,0,0.9-0.2,0.9-0.7s-0.2-0.7-0.7-0.7H205v1.4H205.3z"/>
		<path class="st3" d="M207.9,53.8h2.6v0.6l-1.8,0.1v1.3h1.5v0.6h-1.5v1.5l1.8,0.1v0.6h-2.7L207.9,53.8L207.9,53.8z"/>
	</g>
	<g>
		<path class="st1" d="M90.3,23.9h7.4v18.5c0,1.9,0.6,2.7,2,2.9c0.3,0,0.6,0,0.9,0c1.4-0.2,2-1.1,2-2.9V23.9h7.4v18.8
			c0,4.6-2.7,7.4-8.5,8c-0.9,0.1-1.8,0.1-2.7,0c-5.7-0.6-8.5-3.4-8.5-8C90.3,42.7,90.3,23.9,90.3,23.9z"/>
		<path class="st1" d="M118.5,23.9L121,39c0.1,0.6,0.2,1.3,0.3,2.1c0.1,0.9,0.2,1.8,0.2,2.7c0-0.4,0.1-0.9,0.1-1.3
			c0.1-1.3,0.3-2.6,0.4-3.5l2.5-15.1h7.7L126,50.1h-9l-6.2-26.2C110.8,23.9,118.5,23.9,118.5,23.9z"/>
		<path class="st2" d="M132.9,23.9h8.3c8.3,0,12.8,4.8,11.6,15.6c-0.8,7.3-4.6,10.7-11.8,10.7h-8.1V23.9z M141.7,44.8
			c2.6,0,3.6-1.5,3.7-6.9c0-0.7,0-1.4,0-2.1c-0.3-5.4-1.2-6.7-3.9-6.6h-1.3v15.6H141.7z"/>
		<path class="st2" d="M159.5,23.9h9.2l6.7,26.2H168l-1.4-6.7h-4.9l-1.4,6.7h-7.4L159.5,23.9z M165.8,38.5l-1.2-6.3
			c-0.1-0.7-0.3-1.7-0.4-2.8c0-0.4-0.1-0.8-0.1-1.3c0,0.4,0,0.9-0.1,1.3c-0.1,1.1-0.3,2.1-0.4,2.8l-1.2,6.3H165.8z"/>
		<path class="st2" d="M172.2,23.9h18.6v5l-5.6,0.5v20.8h-7.4V29.4l-5.6-0.5V23.9z"/>
		<path class="st2" d="M194.4,23.9h9.2l6.7,26.2h-7.4l-1.4-6.7h-4.9l-1.4,6.7h-7.4L194.4,23.9z M200.7,38.5l-1.2-6.3
			c-0.1-0.7-0.3-1.7-0.4-2.8c0-0.4-0.1-0.8-0.1-1.3c0,0.4,0,0.9-0.1,1.3c-0.1,1.1-0.3,2.1-0.4,2.8l-1.2,6.3H200.7z"/>
	</g>
</g>
</svg>
